<svg width="48" height="51" viewBox="0 0 48 51" fill="none" xmlns="http://www.w3.org/2000/svg">
<path d="M6.71631 7.12646C7.68452 4.42567 11.0271 -0.761787 16.6528 0.0942383C22.2787 0.950345 23.8888 5.13907 23.9907 7.12646V17.0249C23.9907 20.3386 21.3044 23.0249 17.9907 23.0249H8.09229L7.66455 22.9644C6.52502 22.7668 4.45397 22.1693 2.7417 20.8853C0.29568 19.0507 -1.08021 15.3815 1.06006 11.4067C2.77228 8.22706 5.54428 7.22838 6.71631 7.12646Z" fill="#4B52FF"/>
<path d="M35.9156 24.554C36.4252 24.554 37.7503 24.7372 38.9733 25.4709C40.502 26.3882 42.3371 28.3762 43.8658 30.0579C45.3942 31.739 45.3941 31.7394 46.3112 32.9622C47.2284 34.1852 46.3116 35.4085 44.7828 37.0901C43.2541 38.7717 42.948 39.2305 42.3365 39.842C41.725 40.4528 40.8073 38.7714 40.1959 37.3958C39.5844 36.0199 39.2787 33.4209 36.8326 32.6565C34.8759 32.045 32.654 31.4843 31.7877 31.2805C31.8896 32.6054 32.3077 35.5913 33.1637 36.9368C34.2338 38.6183 35.304 38.6188 36.8326 39.3831C38.3614 40.1474 38.8207 40.2999 39.7379 40.9114C40.655 41.5228 40.1965 41.8288 39.7379 42.2874C39.2793 42.746 37.4445 44.7333 35.3043 45.9563C33.1641 47.1793 28.884 42.8989 27.0494 40.6057C25.2149 38.3126 25.2145 36.9369 25.2145 34.9495V30.3635C25.2145 27.1551 27.8157 24.554 31.024 24.554H35.9156ZM36.2213 34.9495C36.7278 34.9495 37.1381 35.36 37.1383 35.8665C37.1383 36.373 36.7279 36.7844 36.2213 36.7844C35.7148 36.7843 35.3043 36.373 35.3043 35.8665C35.3045 35.3601 35.7149 34.9496 36.2213 34.9495Z" fill="#4B52FF"/>
<path d="M17.9912 24.554C21.3049 24.554 23.9912 27.2402 23.9912 30.554V38.3127H23.9873C23.9476 41.0674 22.8174 45.2059 17.2646 45.9563C11.6086 46.7206 7.17553 44.7337 5.03516 42.4407C2.89489 40.1475 1.51855 39.0769 1.51855 35.8665V29.2932C1.51855 26.2357 2.74193 24.554 5.34082 24.554H17.9912ZM9.48047 34.7825C8.37611 34.7826 7.48061 35.6781 7.48047 36.7825V38.759C7.4806 39.8634 8.3761 40.7589 9.48047 40.759H11.457C12.5614 40.7589 13.4569 39.8634 13.457 38.759V36.7825C13.4569 35.6781 12.5614 34.7826 11.457 34.7825H9.48047ZM16.6523 34.7825C15.5479 34.7825 14.6525 35.678 14.6523 36.7825V38.759C14.6525 39.8635 15.5479 40.759 16.6523 40.759H18.6279C19.7324 40.759 20.6278 39.8635 20.6279 38.759V36.7825C20.6278 35.678 19.7324 34.7825 18.6279 34.7825H16.6523ZM9.48047 27.6116C8.37602 27.6117 7.48047 28.5071 7.48047 29.6116V31.5872C7.48047 32.6916 8.37602 33.587 9.48047 33.5872H11.457C12.5615 33.587 13.457 32.6916 13.457 31.5872V29.6116C13.457 28.5071 12.5615 27.6117 11.457 27.6116H9.48047ZM16.6523 27.6116C15.5478 27.6116 14.6523 28.507 14.6523 29.6116V31.5872C14.6523 32.6917 15.5478 33.5872 16.6523 33.5872H18.6279C19.7325 33.5872 20.6279 32.6917 20.6279 31.5872V29.6116C20.6279 28.507 19.7325 27.6116 18.6279 27.6116H16.6523Z" fill="#FFC64A"/>
<path d="M33.776 0.858154C34.9987 -0.364435 35.4571 0.0939667 36.2213 0.858154C36.9857 1.62253 41.7256 6.51432 45.5475 10.1833C49.3691 13.8521 46.7035 18.3595 45.2418 19.9675C43.7131 21.6491 42.0307 23.0251 38.9733 23.0251H31.2145C29.5423 23.0251 28.0311 22.3397 26.943 21.2361L31.0729 17.1072L31.7223 17.7566L31.8619 17.8816C32.5825 18.4691 33.6454 18.4272 34.317 17.7556L39.2369 12.8357V14.0896C39.237 14.596 39.6475 15.0064 40.1539 15.0066C40.6604 15.0066 41.0708 14.5961 41.0709 14.0896L41.0719 10.7263C41.0718 10.461 40.9582 10.2219 40.778 10.0544C40.6105 9.87429 40.3715 9.7605 40.1061 9.7605L36.7428 9.76147C36.2364 9.76165 35.8259 10.172 35.8258 10.6785C35.8259 11.1848 36.2364 11.5953 36.7428 11.5955H37.8834L33.0201 16.4587L32.3707 15.8093C31.6543 15.0935 30.4932 15.0943 29.777 15.8103L25.858 19.7283C25.4472 18.9158 25.2145 17.9978 25.2145 17.0251V10.7957C25.3164 10.388 25.7035 9.32765 26.4371 8.34937C27.3544 7.12639 32.5528 2.08132 33.776 0.858154Z" fill="#4B52FF"/>
<path d="M21.5454 50.8486H19.4051C18.0293 50.8486 15.7361 50.5429 17.7235 49.6256C19.7109 48.7084 20.6282 48.2497 22.3098 46.5681C23.6551 45.2228 24.6029 42.2366 24.9087 40.9117C24.9087 42.2876 24.7864 45.4062 24.2972 46.8739C23.6857 48.7084 23.0742 50.8486 21.5454 50.8486Z" fill="#00EB85"/>
</svg>
