<svg width="106" height="117" viewBox="0 0 106 117" fill="none" xmlns="http://www.w3.org/2000/svg">
<path d="M45.1722 117H37.6454C32.8068 117 24.7424 115.8 31.7316 112.2C38.7207 108.6 43.0861 108.6 49 102C53.7311 96.72 54.9247 82.7 56 77.5C56 82.9 56.5699 95.64 54.8495 101.4C52.699 108.6 50.5485 117 45.1722 117Z" fill="#4B52FF"/>
<path d="M72 0C81.3888 0 89 7.61116 89 17C98.3888 17 106 24.6112 106 34C106 43.3888 98.3888 51 89 51H59C58.2873 51 57.6186 50.813 57.0391 50.4863L66.6982 40.8262L69.5908 43.7188C70.3718 44.4994 71.638 44.4994 72.4189 43.7188L84.7617 31.376V34.1504C84.7619 35.2711 85.6702 36.1797 86.791 36.1797C87.9118 36.1797 88.8201 35.2711 88.8203 34.1504V26.708C88.8202 26.1205 88.569 25.5932 88.1699 25.2227C87.7993 24.8239 87.2719 24.5732 86.6846 24.5732H79.2432C78.1223 24.5733 77.2139 25.4817 77.2139 26.6025C77.214 27.7233 78.1224 28.6318 79.2432 28.6318H81.7656L71.0049 39.3916L68.1143 36.501C67.3332 35.7199 66.0662 35.7199 65.2852 36.501L55 46.7861V17C55 7.61116 62.6112 0 72 0Z" fill="#4B52FF"/>
<path d="M47 54C49.2091 54 51 55.7909 51 58V88C51 97.3888 43.3888 105 34 105C24.6112 105 17 97.3888 17 88C7.61116 88 0 80.3888 0 71C0 61.6112 7.61116 54 17 54H47ZM24 72C22.8954 72 22 72.8954 22 74V81C22 82.1046 22.8954 83 24 83H31C32.1046 83 33 82.1046 33 81V74C33 72.8954 32.1046 72 31 72H24ZM37 72C35.8954 72 35 72.8954 35 74V81C35 82.1046 35.8954 83 37 83H44C45.1046 83 46 82.1046 46 81V74C46 72.8954 45.1046 72 44 72H37ZM24 59C22.8954 59 22 59.8954 22 61V68C22 69.1046 22.8954 70 24 70H31C32.1046 70 33 69.1046 33 68V61C33 59.8954 32.1046 59 31 59H24ZM37 59C35.8954 59 35 59.8954 35 61V68C35 69.1046 35.8954 70 37 70H44C45.1046 70 46 69.1046 46 68V61C46 59.8954 45.1046 59 44 59H37Z" fill="#4B52FF"/>
<path d="M89 54C98.3888 54 106 61.6112 106 71C106 80.3888 98.3888 88 89 88C89 97.3888 81.3888 105 72 105C62.6112 105 55 97.3888 55 88V58C55 57.8397 55.01 57.6817 55.0283 57.5264L60.8545 68.4375C60.9158 68.5523 60.9952 68.6502 61.0869 68.7285C61.413 69.6027 61.9271 70.4231 62.6299 71.126C63.3324 71.8285 64.1526 72.3419 65.0264 72.668C65.1048 72.76 65.2032 72.8398 65.3184 72.9014L80.8291 81.1826C81.701 81.6481 82.6481 80.701 82.1826 79.8291L73.9014 64.3184C73.8398 64.2031 73.7591 64.1058 73.667 64.0273C73.3409 63.1533 72.8287 62.3326 72.126 61.6299C71.4229 60.9269 70.602 60.4139 69.7275 60.0879C69.6492 59.9962 69.5523 59.9158 69.4375 59.8545L58.5264 54.0283C58.6817 54.01 58.8397 54 59 54H89ZM65.7949 64.7949C66.669 63.9209 68.0868 63.921 68.9609 64.7949C69.8349 65.6691 69.835 67.0869 68.9609 67.9609C68.0868 68.8349 66.669 68.8349 65.7949 67.9609C64.9211 67.0868 64.921 65.669 65.7949 64.7949Z" fill="#4B52FF"/>
<path d="M34 0C43.3888 0 51 7.61116 51 17V47C51 49.2091 49.2091 51 47 51H17C7.61116 51 0 43.3888 0 34C0 24.6112 7.61116 17 17 17C17 7.61116 24.6112 0 34 0ZM45.7266 24.4355C45.2592 23.9686 44.4942 23.9767 44.0176 24.4531C40.6968 27.7739 37.8411 29.2555 35.166 29.291C32.4931 29.3262 29.648 27.9215 26.3545 24.6279C25.8871 24.1609 25.1221 24.1689 24.6455 24.6455C24.1689 25.1221 24.1609 25.8871 24.6279 26.3545C27.92 29.6466 29.3206 32.4967 29.2832 35.1729C29.2478 37.6841 27.9425 40.351 25.0527 43.4014L24.4531 44.0176L24.3691 44.1104C23.9775 44.5889 23.9986 45.2885 24.4365 45.7266C24.9038 46.1936 25.6689 46.1864 26.1455 45.71C29.4494 42.4061 32.3248 40.9383 35.0166 40.9092C37.7079 40.8804 40.56 42.2856 43.8086 45.5342C44.2759 46.0014 45.0409 45.9942 45.5176 45.5176C45.9645 45.0707 45.9987 44.3703 45.6162 43.8994L45.5342 43.8086L44.9473 43.2041C42.1147 40.2038 40.8766 37.5444 40.9014 35.0244C40.928 32.3363 42.3948 29.4607 45.71 26.1455C46.1865 25.6688 46.1939 24.9028 45.7266 24.4355Z" fill="#4B52FF"/>
</svg>
